<svg version="1.1" id="Layer_1" xmlns="http://www.w3.org/2000/svg" xmlns:xlink="http://www.w3.org/1999/xlink" x="0px" y="0px"
	 width="100%" viewBox="0 0 526 600" enable-background="new 0 0 526 600" xml:space="preserve">
<path fill="#442626" opacity="1.000000" stroke="none" 
	d="
M527.000000,171.000000 
	C527.000000,313.166656 526.982727,454.833282 527.094055,596.499878 
	C527.096985,600.249207 526.249573,601.096191 522.500000,601.093811 
	C350.166748,600.985840 177.833420,600.985779 5.500172,601.093750 
	C1.751093,601.096069 0.904345,600.249695 0.906364,596.500061 
	C1.012434,399.500153 1.012419,202.500168 0.906420,5.500236 
	C0.904403,1.751387 1.750042,0.903823 5.499873,0.906174 
	C177.833115,1.014209 350.166443,1.014193 522.499695,0.906253 
	C526.248474,0.903905 527.106140,1.748596 527.096558,5.499998 
	C526.956116,60.499722 527.000000,115.499916 527.000000,171.000000 
z"/>
<path fill="#FBF9F9" opacity="1.000000" stroke="none" 
	d="
M235.627228,6.778656 
	C236.661758,6.610345 237.322174,6.531132 238.313782,6.421308 
	C240.238235,5.817305 241.980438,6.234741 243.900024,5.507640 
	C248.108307,5.145131 251.988586,4.925106 256.314880,4.690525 
	C265.262726,3.371669 273.791901,3.999250 282.772888,4.504141 
	C285.530060,4.777925 287.831055,4.862599 290.565460,4.965713 
	C293.231689,5.259682 295.348206,6.172792 297.995789,6.269275 
	C299.021545,6.438320 299.679077,6.530867 300.663208,6.683225 
	C305.011261,6.820479 308.575623,9.045724 312.963745,9.305805 
	C313.715118,9.474589 314.081421,9.547012 314.718750,9.690230 
	C317.594879,10.411996 320.079803,11.440329 323.006622,12.281725 
	C323.725128,12.448775 324.087097,12.534801 324.719818,12.688296 
	C325.857971,12.979434 326.784027,12.985585 327.880035,13.620232 
	C328.820160,13.928644 329.465210,14.072455 330.426422,14.312667 
	C332.336273,15.157584 334.071075,15.570647 335.898529,16.611774 
	C336.538269,16.898766 336.886780,17.029654 337.487427,17.280872 
	C341.084412,18.964190 344.340393,20.704622 347.961914,22.485008 
	C348.626129,22.753778 348.967834,22.896767 349.567871,23.141895 
	C351.111206,23.964020 352.374115,24.722174 353.938904,25.585064 
	C354.228333,25.711227 354.597504,25.868824 354.774597,25.963318 
	C355.534515,26.562462 356.112183,27.073530 357.042511,27.504025 
	C361.349304,29.894751 365.366791,32.287285 369.674622,34.860275 
	C370.526489,35.548595 371.080841,36.064659 371.928040,36.661598 
	C372.183990,36.784492 372.517487,36.989346 372.669617,37.112446 
	C373.950867,37.760685 374.675354,38.785732 375.906036,39.659340 
	C377.886139,41.145119 379.599121,42.486958 381.580627,44.011681 
	C382.938232,44.776958 383.681824,45.765324 384.847961,46.723736 
	C386.541046,48.163383 387.992554,49.420376 389.658539,50.916088 
	C390.925720,51.790436 391.694702,52.736389 392.723389,53.838627 
	C397.617889,58.737671 402.595215,63.137402 406.973938,68.580215 
	C407.896027,70.667007 411.945435,72.208649 407.282043,74.286392 
	C406.902435,74.108704 406.507568,73.986809 406.314453,73.913292 
	C405.461090,73.450714 404.906738,72.916763 403.989624,72.458572 
	C402.746002,71.923073 401.787048,71.418602 400.526886,70.789413 
	C398.878937,70.062973 397.624786,69.297630 396.121887,68.332214 
	C395.851898,68.169556 395.486115,68.009727 395.308105,67.919502 
	C394.457916,67.447647 393.895935,66.911140 392.961670,66.487885 
	C391.705292,65.995842 390.737762,65.507896 389.471130,64.891258 
	C387.718079,63.743221 385.896118,63.494270 384.160034,62.310818 
	C383.888916,62.123631 383.504669,61.988258 383.317657,61.907547 
	C381.726593,60.710075 379.889160,60.481434 378.124939,59.353626 
	C377.490967,59.053230 377.140167,58.921627 376.531250,58.679050 
	C374.853149,58.111496 373.644470,57.236172 372.028351,56.471916 
	C371.112213,56.177307 370.494629,55.987514 369.578430,55.674274 
	C365.201080,54.194969 361.422943,52.110138 357.059143,50.506950 
	C356.106598,50.186974 355.483429,50.006851 354.552979,49.722923 
	C352.009247,48.796200 349.670837,48.325638 347.065521,47.499298 
	C345.799896,47.179989 344.864441,46.997887 343.583618,46.723930 
	C342.300629,46.163773 341.266327,45.993290 339.975830,45.608311 
	C339.299133,45.476124 338.927704,45.407207 338.281921,45.267372 
	C337.135254,45.011688 336.214935,45.015972 335.124390,44.372314 
	C333.550049,44.065712 332.268311,43.925377 330.605103,43.720947 
	C329.105347,43.004578 327.844086,43.015320 326.311554,42.809875 
	C324.896301,42.600204 323.784058,42.459370 322.340210,42.262421 
	C320.830170,41.926792 319.571747,42.126579 318.105438,41.449799 
	C297.856873,38.767258 277.825378,37.686592 257.973419,40.894222 
	C211.824051,48.350925 171.840591,67.610512 142.810074,105.419167 
	C117.975342,137.763336 108.641212,174.670578 114.519447,215.063263 
	C119.614288,250.072739 133.023270,281.744232 155.613251,309.068420 
	C172.410873,329.386444 193.626312,344.209595 217.305634,355.689697 
	C226.516159,360.155121 236.105804,363.290131 245.912201,365.968140 
	C249.599030,366.974976 252.091019,366.141357 253.014694,362.086517 
	C256.416046,347.154999 260.298828,332.323578 262.305664,316.683350 
	C262.961212,315.122955 262.995300,313.855774 263.203918,312.304016 
	C263.367035,311.342010 263.456512,310.685699 263.582031,309.700134 
	C264.185333,307.778503 263.745422,306.028870 264.547516,304.128357 
	C264.878876,302.217682 265.049469,300.626709 265.266846,298.638702 
	C266.255585,296.740662 265.833496,294.992340 266.270935,293.038116 
	C266.469574,291.706482 266.591553,290.722656 266.755615,289.369415 
	C267.070129,287.827454 266.881561,286.582367 267.507751,285.112793 
	C267.744934,284.088837 267.832031,283.394012 267.946198,282.349976 
	C267.991058,281.553070 268.022247,281.106323 268.116394,280.328186 
	C268.229431,279.623077 268.292908,279.250244 268.403748,278.597809 
	C268.785553,277.331726 269.038879,276.325531 269.232666,274.984924 
	C269.419952,273.696106 269.562012,272.716156 269.752655,271.368011 
	C270.073761,269.833771 269.868317,268.585876 270.581482,267.149872 
	C270.913483,265.562164 271.070862,264.290070 271.282654,262.637329 
	C271.970428,261.120697 271.988922,259.849701 272.216278,258.303040 
	C272.385895,257.344604 272.477814,256.690552 272.608643,255.708557 
	C273.048553,254.090149 272.828491,252.676544 273.593018,251.129211 
	C273.915894,249.885757 274.077637,248.939346 274.314453,247.640778 
	C274.786316,246.325943 275.023743,245.316406 275.331909,244.003784 
	C275.477844,243.322464 275.557281,242.945480 275.687622,242.284042 
	C275.975006,241.138275 275.985962,240.220062 276.535645,239.097214 
	C276.853699,237.850204 277.030121,236.908005 277.273743,235.612640 
	C277.789642,234.317062 278.031097,233.313232 278.271881,231.987488 
	C278.406799,231.308441 278.490021,230.935745 278.621704,230.280762 
	C279.088409,228.862061 278.859009,227.584564 279.627472,226.175598 
	C279.915741,225.496170 280.012665,225.123947 280.168396,224.469269 
	C281.337311,222.069748 281.557007,219.660049 282.621399,217.163879 
	C282.907471,216.490494 283.008026,216.120270 283.167908,215.468414 
	C284.337311,213.069748 284.557007,210.660049 285.621399,208.163879 
	C285.907440,207.490494 286.007996,207.120255 286.167908,206.468414 
	C287.347137,204.077423 287.528961,201.654831 288.666565,199.191620 
	C288.994263,198.547867 289.120667,198.196640 289.342133,197.582123 
	C290.102692,195.684921 290.553955,193.961975 291.648956,192.153168 
	C291.948395,191.520889 292.068207,191.167480 292.284058,190.551163 
	C293.907379,186.281143 295.737000,182.403305 297.633881,178.171982 
	C297.833435,177.875061 298.002625,177.509415 298.076538,177.322021 
	C299.291260,175.750290 299.489075,173.893768 300.690979,172.176270 
	C300.882690,171.908493 301.049561,171.544739 301.125183,171.359467 
	C301.957642,169.912979 302.694489,168.639694 303.644531,167.126801 
	C303.804169,166.854797 303.990662,166.499023 304.064941,166.312424 
	C305.000092,164.933273 305.678253,163.625473 306.649841,162.130676 
	C306.811096,161.860352 306.983643,161.498825 307.064636,161.315643 
	C307.527435,160.476593 308.067383,159.942017 308.640564,159.084717 
	C310.078979,157.090424 311.396912,155.351929 312.892517,153.340881 
	C314.462738,151.125870 315.707428,149.068420 317.647400,147.139343 
	C318.175812,146.446854 318.525757,146.027985 319.010498,145.371552 
	C319.525330,144.472549 320.073730,143.945755 320.708496,143.127533 
	C321.507996,142.135193 322.156769,141.382812 323.005310,140.408310 
	C323.507233,139.458237 324.095093,138.963531 324.880157,138.280701 
	C325.332672,137.893326 325.549347,137.663406 325.937836,137.269821 
	C326.510773,136.452133 327.081299,135.949020 327.823059,135.221725 
	C329.845398,133.478058 331.652161,131.919159 333.682556,130.123901 
	C334.548981,129.481094 335.057404,128.919159 335.818359,128.217590 
	C337.155182,127.107513 338.286865,126.191933 339.671082,125.091972 
	C340.530975,124.456879 341.072845,123.928154 341.901825,123.307144 
	C342.589142,122.846832 343.032043,122.529564 343.707672,122.070221 
	C345.046112,120.942574 346.410889,120.346390 347.869324,119.322891 
	C348.135315,119.154633 348.521332,119.026398 348.707031,118.943420 
	C349.538971,118.442932 350.108612,117.919647 351.047791,117.512680 
	C351.669434,117.352768 352.002502,117.188202 352.571167,116.874649 
	C354.902802,115.315651 357.370972,114.703674 359.889648,113.394958 
	C360.541412,113.103958 360.895355,112.979401 361.509888,112.748291 
	C362.343445,112.467606 362.843384,112.120621 363.704956,111.870468 
	C364.369812,111.708679 364.746002,111.622894 365.399597,111.454407 
	C366.796356,111.130547 367.912628,111.075417 369.474304,111.765823 
	C369.815186,112.294258 369.703857,112.484200 369.363953,112.912445 
	C367.911804,114.616440 366.939758,116.287521 365.335144,117.855423 
	C362.862610,121.200432 360.567902,124.277275 358.104156,127.645279 
	C356.952393,129.044495 356.321503,130.380508 355.405853,131.904358 
	C354.190033,134.187256 353.114990,136.189011 351.919128,138.508484 
	C350.748535,140.267090 350.487396,142.086914 349.338623,143.842850 
	C349.157074,144.118240 348.997192,144.492188 348.929016,144.683777 
	C347.725830,146.274750 347.427948,148.070465 346.481628,149.923645 
	C346.221039,150.580917 346.092804,150.936340 345.886841,151.564438 
	C345.473175,152.505142 344.954773,153.066208 344.691589,154.048248 
	C344.574249,154.696808 344.442261,155.065399 344.232666,155.717209 
	C344.046326,156.587585 343.867126,157.149368 343.449554,157.940521 
	C343.181915,158.856033 343.020874,159.494720 342.789520,160.455215 
	C341.724335,162.946060 341.384277,165.318695 340.449554,167.874252 
	C340.137054,168.832199 339.986328,169.472641 339.759399,170.433151 
	C339.209778,171.683441 338.977264,172.691284 338.670715,173.999725 
	C338.527405,174.678955 338.448608,175.054504 338.330627,175.715271 
	C337.917938,177.152573 338.128540,178.416962 337.444092,179.862961 
	C337.123871,181.141296 336.970428,182.098053 336.764648,183.414398 
	C335.917450,184.945969 336.098053,186.360519 335.665955,187.968384 
	C335.515869,188.671875 335.449890,189.050568 335.344391,189.714874 
	C334.918823,191.154007 335.121582,192.418091 334.483948,193.882019 
	C334.122711,196.106979 333.915253,198.003174 333.655090,200.304230 
	C333.052277,201.874069 332.991394,203.133774 332.827209,204.693787 
	C332.629242,206.111984 332.494507,207.222137 332.328613,208.666336 
	C331.696075,211.118423 332.330200,213.355850 331.505249,215.840546 
	C331.240692,217.865341 331.143250,219.518021 331.034454,221.584991 
	C331.001251,222.800797 331.004303,223.603073 330.924988,224.703156 
	C330.808136,226.308289 330.718994,227.613968 330.606750,229.311371 
	C329.336456,234.489166 330.392792,239.384979 329.815826,244.604477 
	C329.588257,250.038498 329.437744,255.074722 329.284363,260.555359 
	C328.470306,267.430511 329.558838,273.920746 328.489807,280.772217 
	C328.204437,284.824982 328.104553,288.454681 328.003296,292.542175 
	C327.985413,294.460114 328.035858,295.921082 327.914856,297.691650 
	C327.800018,300.291260 327.716980,302.579529 327.621826,305.293518 
	C326.313141,309.494415 327.414764,313.422119 326.792969,317.623718 
	C326.583313,320.074402 326.457275,322.146851 326.317200,324.609772 
	C325.594482,327.767883 326.442047,330.657379 325.458557,333.799408 
	C325.090179,336.420502 324.907349,338.660217 324.686188,341.318298 
	C323.655609,343.516693 324.183380,345.504089 323.809021,347.689880 
	C323.622437,348.960449 323.505280,349.919037 323.325012,351.234192 
	C323.511322,352.464935 322.867828,353.008759 322.382019,353.918579 
	C321.690796,355.022797 321.116058,355.862518 320.331818,356.927765 
	C319.464874,357.536438 318.933502,358.079590 318.105774,358.701050 
	C317.864716,358.849457 317.507935,359.025879 317.334351,359.123169 
	C315.689117,360.239136 313.911621,360.581268 312.040039,361.517670 
	C311.369141,361.747009 311.006073,361.855011 310.371979,362.048126 
	C308.358154,363.326874 306.153473,363.313232 304.019073,364.446838 
	C303.066315,364.740173 302.439575,364.921997 301.496948,365.185974 
	C299.334625,366.234680 297.182190,366.338074 295.020691,367.449036 
	C294.061584,367.730927 293.428680,367.899963 292.477448,368.146423 
	C291.161469,368.791656 290.503723,369.445312 291.811005,370.738281 
	C295.011017,370.904755 297.974762,370.868866 301.376648,370.776428 
	C303.175598,369.818634 304.748810,370.084656 306.617889,369.853729 
	C308.425903,369.641602 309.858612,369.489960 311.648254,369.286987 
	C313.511719,368.793732 315.151306,369.290710 316.924866,368.441986 
	C318.196472,368.170929 319.163116,368.039429 320.490570,367.847412 
	C321.870178,367.006012 323.108521,367.040741 324.638916,366.771423 
	C325.367340,366.618439 325.746124,366.555634 326.406433,366.432037 
	C327.690582,366.109467 328.737946,366.024170 330.000519,365.519836 
	C331.244141,365.255157 332.188446,365.077850 333.487000,364.834473 
	C335.660217,363.739716 337.826447,363.669373 339.979370,362.549683 
	C340.920776,362.236420 341.536255,362.036102 342.458557,361.732788 
	C344.344604,360.837128 346.073151,360.402771 347.952545,359.470276 
	C348.617981,359.229370 348.977417,359.114319 349.607727,358.917084 
	C351.368683,357.876617 353.185883,357.615997 354.954407,356.473022 
	C355.608307,356.218231 355.955963,356.088806 356.556091,355.842407 
	C358.122772,355.056000 359.367981,354.263092 360.964600,353.458710 
	C361.608185,353.218292 361.955872,353.088867 362.556091,352.842407 
	C364.122711,352.055725 365.368469,351.263672 366.964050,350.457001 
	C367.959686,349.948181 368.659637,349.550812 369.594513,348.960510 
	C370.540649,348.468872 371.069275,347.910278 371.940430,347.355957 
	C372.201263,347.243866 372.560944,347.078278 372.731659,346.977997 
	C373.533264,346.457153 374.074738,345.924835 374.927307,345.339111 
	C376.236755,344.533539 377.290710,343.850891 378.587158,342.967987 
	C379.540588,342.468781 380.069305,341.910339 380.940460,341.355988 
	C381.201294,341.243896 381.561035,341.078522 381.731934,340.978577 
	C382.909302,340.189331 383.692444,339.250519 384.848022,338.275269 
	C386.222321,337.180298 387.355347,336.268250 388.744751,335.178711 
	C389.523468,334.453308 390.076691,333.937531 390.875549,333.275757 
	C408.297180,318.748505 421.943634,301.495667 433.046295,282.098206 
	C442.514954,265.555511 449.288849,247.832260 456.576233,230.304779 
	C465.653900,208.471359 478.504547,189.181885 497.279327,174.383011 
	C504.061646,169.036942 511.544708,164.772766 520.454834,163.122437 
	C520.671570,166.010239 518.754089,167.383118 517.546875,168.994522 
	C502.402954,189.209259 495.393036,212.287415 492.943481,237.122604 
	C488.666473,280.485382 489.671112,324.013336 488.558105,367.474274 
	C487.548828,406.884674 480.820068,444.994049 462.896332,480.517151 
	C443.288605,519.377808 415.844055,551.197388 377.131683,571.953857 
	C348.317871,587.403015 317.074829,594.317200 284.382263,594.778625 
	C257.167114,595.162659 231.215546,589.047546 205.826645,579.889893 
	C204.897141,579.554626 204.001190,579.109497 203.129761,578.640869 
	C202.885376,578.509399 202.784454,578.111267 202.270889,577.261841 
	C208.252457,575.009705 214.498657,574.665222 220.513443,573.579163 
	C250.736618,568.122192 280.442902,561.051636 308.487823,548.034363 
	C357.722046,525.181885 391.390015,488.299164 409.310822,437.047119 
	C413.157043,426.047272 417.362091,415.157501 419.495148,403.643097 
	C419.752563,402.253510 420.995178,400.416687 419.581909,399.428162 
	C417.870758,398.231354 416.592560,400.169556 415.335663,401.111145 
	C387.837494,421.711243 357.837311,437.089905 324.286957,445.253540 
	C314.546936,447.623535 304.653748,448.907104 294.791290,450.463989 
	C288.502045,451.456818 283.043488,453.977509 278.743195,458.805908 
	C264.974365,474.265564 250.222687,488.687164 233.200485,500.569733 
	C205.178146,520.131104 174.301498,532.068359 140.036652,534.496582 
	C111.685844,536.505676 83.822464,533.653320 56.547665,525.515015 
	C50.863953,523.819092 45.594345,521.223389 40.014801,518.601685 
	C41.833015,516.217834 43.849567,516.642029 45.518955,516.388794 
	C70.901268,512.538452 95.970810,507.438629 120.320595,499.060150 
	C149.033615,489.180389 174.903122,474.513153 197.264404,453.922241 
	C200.753174,450.709717 204.331619,449.782104 208.648163,450.582947 
	C221.843231,453.030945 235.176559,452.807343 248.503479,452.753265 
	C250.658600,452.744507 252.862915,452.964081 254.937454,451.424469 
	C252.604752,449.387085 249.683243,449.499725 247.009613,449.087830 
	C219.450531,444.842133 193.228409,436.510498 168.627533,423.331085 
	C135.839661,405.765686 109.675804,380.802948 88.000313,350.833771 
	C70.114510,326.104340 57.051029,299.064819 50.408051,269.289154 
	C42.278545,232.850525 43.709007,196.593597 54.341103,160.672348 
	C65.865440,121.736603 87.563141,89.447701 117.636948,62.095718 
	C118.892181,61.186699 119.687546,60.261658 120.846039,59.288353 
	C122.539124,57.851601 123.988304,56.594471 125.683167,55.132416 
	C126.524376,54.463772 127.062286,53.934322 127.854469,53.267300 
	C128.494858,52.743309 128.909622,52.389595 129.543762,51.873932 
	C130.966675,51.298206 131.647751,50.209373 132.888062,49.352112 
	C133.154114,49.204910 133.467422,48.968948 133.636963,48.870392 
	C134.535873,48.491875 135.041641,47.912575 135.825043,47.232025 
	C136.469162,46.711067 136.901840,46.379997 137.559021,45.894466 
	C138.534088,45.501644 139.038895,44.912617 139.860382,44.279835 
	C140.518173,43.776993 140.945084,43.440342 141.588409,42.938698 
	C142.942535,42.270641 143.645660,41.211205 144.936127,40.428337 
	C147.160843,39.142696 149.106293,37.974880 151.356445,36.650982 
	C152.556778,36.596745 153.001801,35.865715 153.835358,35.255569 
	C154.058975,35.071602 154.417267,34.890011 154.604248,34.816723 
	C156.101425,34.070778 157.353928,33.298954 158.878937,32.368179 
	C159.152695,32.211365 159.525009,32.047779 159.712921,31.970093 
	C161.063721,30.986610 162.368591,30.308292 163.916611,29.429604 
	C164.545074,29.153700 164.888947,29.011759 165.498260,28.783333 
	C167.291962,27.812677 169.075058,27.489216 170.835434,26.329353 
	C171.108154,26.142982 171.498459,26.005863 171.695526,25.942997 
	C173.266083,24.707251 175.090714,24.463543 176.904999,23.444786 
	C177.546097,23.161854 177.891724,23.024126 178.499725,22.791325 
	C180.308975,21.851414 181.905762,21.117033 183.847183,20.349403 
	C184.498093,20.076656 184.868958,19.980148 185.519363,19.816704 
	C187.633606,18.766403 189.787369,18.678389 191.936188,17.551046 
	C192.890640,17.250357 193.524536,17.075560 194.478668,16.825264 
	C196.633606,15.766402 198.787369,15.678388 200.936188,14.551046 
	C201.893829,14.252691 202.530884,14.080227 203.491043,13.839098 
	C204.591095,13.297735 205.417297,12.973087 206.669434,12.877708 
	C207.367645,12.732644 207.733963,12.641192 208.377808,12.493355 
	C209.917313,11.945849 211.338654,12.170729 212.869934,11.402369 
	C213.828842,11.121282 214.492905,11.002541 215.490494,10.832950 
	C216.703995,10.202546 217.695847,9.964223 219.028275,9.794201 
	C220.003586,9.624766 220.673050,9.492868 221.678818,9.303182 
	C222.873260,9.021136 223.787033,9.014830 224.892090,8.437741 
	C226.781631,8.116055 228.372208,7.943608 230.359650,7.722978 
	C232.153397,6.837549 233.747543,7.099370 235.627228,6.778656 
z"/>
<path fill="#A49696" opacity="1.000000" stroke="none" 
	d="
M283.006653,4.391931 
	C274.711517,4.802471 266.193909,4.911690 257.218597,4.848439 
	C261.180634,2.353236 265.982758,3.440434 270.604309,3.302835 
	C274.651764,3.182328 278.781219,2.993755 283.006653,4.391931 
z"/>
<path fill="#9A8A8A" opacity="1.000000" stroke="none" 
	d="
M328.612854,280.984039 
	C327.513336,274.658875 328.150940,268.157898 329.035065,261.328369 
	C330.302856,267.611603 329.896973,274.197388 328.612854,280.984039 
z"/>
<path fill="#A49696" opacity="1.000000" stroke="none" 
	d="
M407.027527,74.416519 
	C411.396698,72.846619 407.264496,71.080780 407.174255,69.195251 
	C409.911072,70.003014 410.898926,72.850525 412.865875,74.757927 
	C413.834229,75.696938 414.582733,77.022209 413.367523,78.196136 
	C412.017334,79.500443 411.035980,78.167686 410.078247,77.325500 
	C409.098328,76.463776 408.127441,75.591812 407.027527,74.416519 
z"/>
<path fill="#9A8A8A" opacity="1.000000" stroke="none" 
	d="
M329.988556,244.676422 
	C328.801086,240.035797 329.108948,235.088882 330.277863,229.926880 
	C331.434479,234.608337 330.825378,239.479187 329.988556,244.676422 
z"/>
<path fill="#9A8A8A" opacity="1.000000" stroke="none" 
	d="
M326.970093,317.682434 
	C325.783630,314.029633 326.404541,310.097626 327.313812,305.942322 
	C328.565247,309.635651 328.007660,313.502838 326.970093,317.682434 
z"/>
<path fill="#A49696" opacity="1.000000" stroke="none" 
	d="
M313.116302,9.135997 
	C309.181885,9.942755 305.438568,8.071897 301.244202,7.031822 
	C305.156464,6.322197 308.971191,7.869853 313.116302,9.135997 
z"/>
<path fill="#A49696" opacity="1.000000" stroke="none" 
	d="
M356.854187,50.686272 
	C361.222748,50.828064 365.013550,53.192677 369.161682,55.229881 
	C364.811676,55.030910 361.004639,52.721832 356.854187,50.686272 
z"/>
<path fill="#9A8A8A" opacity="1.000000" stroke="none" 
	d="
M297.510559,177.983765 
	C297.038940,182.250809 294.858521,186.078430 292.700806,190.165070 
	C292.958618,185.819336 295.188965,182.001556 297.510559,177.983765 
z"/>
<path fill="#A49696" opacity="1.000000" stroke="none" 
	d="
M348.177521,22.290951 
	C344.376312,22.128185 341.282715,19.799776 337.837891,17.722778 
	C341.607666,17.964996 344.719818,20.237780 348.177521,22.290951 
z"/>
<path fill="#9A8A8A" opacity="1.000000" stroke="none" 
	d="
M325.581909,333.995850 
	C324.626495,331.280975 325.197906,328.455292 326.048035,325.315613 
	C327.222168,327.986572 326.977081,330.918457 325.581909,333.995850 
z"/>
<path fill="#9A8A8A" opacity="1.000000" stroke="none" 
	d="
M291.982666,370.601624 
	C290.262573,371.441711 288.513092,371.249054 286.444122,370.613831 
	C287.708588,368.710205 289.784332,368.779785 291.784912,368.139526 
	C292.078766,368.903442 291.998413,369.583038 291.982666,370.601624 
z"/>
<path fill="#9A8A8A" opacity="1.000000" stroke="none" 
	d="
M370.192322,112.067299 
	C368.860046,111.944237 367.793579,111.784149 366.202087,111.497879 
	C367.414062,109.501228 369.731842,109.770706 371.948181,109.306076 
	C372.007233,110.807045 371.383484,111.513870 370.192322,112.067299 
z"/>
<path fill="#A49696" opacity="1.000000" stroke="none" 
	d="
M323.178955,12.085320 
	C320.454773,12.730136 318.009094,11.261671 315.205048,10.060987 
	C317.904938,9.477934 320.390320,10.875734 323.178955,12.085320 
z"/>
<path fill="#9A8A8A" opacity="1.000000" stroke="none" 
	d="
M331.637390,216.042755 
	C330.589539,213.952866 330.981171,211.762787 332.020050,209.297852 
	C333.177673,211.343750 332.741455,213.617996 331.637390,216.042755 
z"/>
<path fill="#9A8A8A" opacity="1.000000" stroke="none" 
	d="
M317.497742,146.930725 
	C317.260254,149.426865 315.157867,150.939957 313.390472,152.984100 
	C313.408081,150.349762 315.329712,148.700348 317.497742,146.930725 
z"/>
<path fill="#A49696" opacity="1.000000" stroke="none" 
	d="
M346.893066,47.679062 
	C349.324280,47.081802 351.640167,48.028675 354.101593,49.294037 
	C351.688568,49.782051 349.361542,48.925030 346.893066,47.679062 
z"/>
<path fill="#A49696" opacity="1.000000" stroke="none" 
	d="
M298.146729,6.093805 
	C295.928833,7.333517 293.836304,5.971437 291.316284,5.174240 
	C293.427917,4.309799 295.699432,4.908010 298.146729,6.093805 
z"/>
<path fill="#9A8A8A" opacity="1.000000" stroke="none" 
	d="
M359.821899,113.162910 
	C358.538483,115.479172 355.800568,115.699409 353.170105,116.761490 
	C354.350342,114.282822 357.169495,114.177818 359.821899,113.162910 
z"/>
<path fill="#9A8A8A" opacity="1.000000" stroke="none" 
	d="
M340.611450,168.049927 
	C340.140167,165.634430 341.124786,163.364105 342.403809,160.932724 
	C342.943939,163.359039 341.965271,165.639999 340.611450,168.049927 
z"/>
<path fill="#9A8A8A" opacity="1.000000" stroke="none" 
	d="
M288.545807,199.037628 
	C288.871124,201.420181 287.908417,203.662064 286.539093,206.031677 
	C286.112823,203.627823 287.013306,201.357864 288.545807,199.037628 
z"/>
<path fill="#9A8A8A" opacity="1.000000" stroke="none" 
	d="
M285.484985,208.001251 
	C285.910309,210.409119 284.901855,212.647675 283.539734,215.030762 
	C283.099884,212.626160 284.053162,210.362457 285.484985,208.001251 
z"/>
<path fill="#9A8A8A" opacity="1.000000" stroke="none" 
	d="
M282.484985,217.001251 
	C282.910309,219.409119 281.901855,221.647675 280.539734,224.030762 
	C280.099884,221.626160 281.053162,219.362457 282.484985,217.001251 
z"/>
<path fill="#9A8A8A" opacity="1.000000" stroke="none" 
	d="
M324.012085,347.704987 
	C322.829559,345.967377 323.302856,344.007599 324.354126,341.899902 
	C325.376862,343.681549 324.923401,345.550751 324.012085,347.704987 
z"/>
<path fill="#A49696" opacity="1.000000" stroke="none" 
	d="
M191.892731,17.338615 
	C190.891876,19.501820 188.475449,19.182026 186.164902,19.843704 
	C187.135864,17.602758 189.644882,18.144533 191.892731,17.338615 
z"/>
<path fill="#A49696" opacity="1.000000" stroke="none" 
	d="
M200.892731,14.338615 
	C199.891876,16.501818 197.475449,16.182024 195.164902,16.843704 
	C196.135849,14.602736 198.644897,15.144550 200.892731,14.338615 
z"/>
<path fill="#9A8A8A" opacity="1.000000" stroke="none" 
	d="
M295.060944,367.648376 
	C296.113312,365.573700 298.509155,365.843414 300.817383,365.169067 
	C299.857697,367.477112 297.328369,366.873108 295.060944,367.648376 
z"/>
<path fill="#9A8A8A" opacity="1.000000" stroke="none" 
	d="
M339.938965,362.356445 
	C338.891815,364.412415 336.618530,364.463348 334.202148,364.885193 
	C335.200684,362.670532 337.700684,363.195435 339.938965,362.356445 
z"/>
<path fill="#9A8A8A" opacity="1.000000" stroke="none" 
	d="
M304.059631,364.648560 
	C305.082886,362.592010 307.446960,362.775360 309.735443,362.059387 
	C308.865692,364.431244 306.323669,363.883209 304.059631,364.648560 
z"/>
<path fill="#9A8A8A" opacity="1.000000" stroke="none" 
	d="
M365.487244,118.067612 
	C365.428131,115.940010 367.311676,114.889343 368.821198,113.252983 
	C368.957642,115.404755 367.348267,116.681480 365.487244,118.067612 
z"/>
<path fill="#A49696" opacity="1.000000" stroke="none" 
	d="
M235.726227,6.510660 
	C234.748947,7.959585 233.138412,7.970150 231.139679,7.818899 
	C231.931625,5.864756 233.778488,6.402804 235.726227,6.510660 
z"/>
<path fill="#A49696" opacity="1.000000" stroke="none" 
	d="
M243.872711,5.221408 
	C243.006912,7.239309 241.101303,6.662535 239.009033,6.555863 
	C240.056061,5.162385 241.787338,5.122264 243.872711,5.221408 
z"/>
<path fill="#A49696" opacity="1.000000" stroke="none" 
	d="
M183.776886,20.094799 
	C183.192200,22.143616 181.069962,22.029802 179.114548,22.761936 
	C179.730911,20.782969 181.744354,20.687990 183.776886,20.094799 
z"/>
<path fill="#9A8A8A" opacity="1.000000" stroke="none" 
	d="
M266.093323,292.943848 
	C267.054230,294.478607 266.734772,296.186310 265.627686,298.049255 
	C264.615082,296.469238 265.197754,294.830292 266.093323,292.943848 
z"/>
<path fill="#9A8A8A" opacity="1.000000" stroke="none" 
	d="
M328.066162,297.733673 
	C326.975708,296.563782 327.526825,295.055725 327.837830,293.283386 
	C328.743622,294.451569 328.437317,295.961243 328.066162,297.733673 
z"/>
<path fill="#9A8A8A" opacity="1.000000" stroke="none" 
	d="
M264.386902,303.993591 
	C265.374786,305.591309 264.744568,307.225037 263.873077,309.115601 
	C262.906433,307.565918 263.157837,305.843994 264.386902,303.993591 
z"/>
<path fill="#9A8A8A" opacity="1.000000" stroke="none" 
	d="
M306.733429,369.591858 
	C305.772003,371.121155 304.142944,370.954254 302.193298,370.859741 
	C302.964172,368.862366 304.781860,369.347046 306.733429,369.591858 
z"/>
<path fill="#9A8A8A" opacity="1.000000" stroke="none" 
	d="
M316.848083,368.158783 
	C316.046417,370.098206 314.216705,369.572540 312.274109,369.421448 
	C313.240692,367.909241 314.866882,368.010956 316.848083,368.158783 
z"/>
<path fill="#9A8A8A" opacity="1.000000" stroke="none" 
	d="
M354.908295,356.289429 
	C354.295532,358.282349 352.329803,358.454437 350.228821,358.920044 
	C350.817871,356.853485 353.007568,357.118439 354.908295,356.289429 
z"/>
<path fill="#A49696" opacity="1.000000" stroke="none" 
	d="
M176.849670,23.237675 
	C176.302673,25.286436 174.188736,25.193451 172.244324,25.936043 
	C172.793823,23.898474 174.930161,24.020546 176.849670,23.237675 
z"/>
<path fill="#9A8A8A" opacity="1.000000" stroke="none" 
	d="
M291.512207,192.002197 
	C292.018860,193.866928 290.959656,195.437790 289.756409,197.193298 
	C289.358246,195.363785 290.096405,193.685730 291.512207,192.002197 
z"/>
<path fill="#A49696" opacity="1.000000" stroke="none" 
	d="
M336.064758,16.446632 
	C334.242157,16.842384 332.660828,15.817486 330.870087,14.723723 
	C332.785583,14.040620 334.367676,15.067890 336.064758,16.446632 
z"/>
<path fill="#9A8A8A" opacity="1.000000" stroke="none" 
	d="
M349.477173,144.006226 
	C349.079956,142.135330 350.146027,140.603134 351.477051,138.937469 
	C351.826721,140.790131 350.931061,142.389175 349.477173,144.006226 
z"/>
<path fill="#9A8A8A" opacity="1.000000" stroke="none" 
	d="
M347.907898,359.263763 
	C347.235565,361.287537 345.094635,361.039398 343.114532,361.710297 
	C343.760834,359.635468 345.958099,359.994965 347.907898,359.263763 
z"/>
<path fill="#9A8A8A" opacity="1.000000" stroke="none" 
	d="
M346.672913,150.118256 
	C346.287537,148.269730 347.141571,146.650650 348.544128,144.996063 
	C348.968781,146.852005 347.952637,148.420609 346.672913,150.118256 
z"/>
<path fill="#A49696" opacity="1.000000" stroke="none" 
	d="
M170.757629,26.079025 
	C170.216141,28.168224 168.069839,28.026287 166.116608,28.762264 
	C166.705063,26.752884 168.811539,26.826275 170.757629,26.079025 
z"/>
<path fill="#9A8A8A" opacity="1.000000" stroke="none" 
	d="
M312.085815,361.717285 
	C312.739532,359.733917 314.874756,359.960907 316.808228,359.180328 
	C316.286987,361.362213 314.068665,361.038849 312.085815,361.717285 
z"/>
<path fill="#9A8A8A" opacity="1.000000" stroke="none" 
	d="
M300.565674,172.023621 
	C300.951080,173.896896 299.825958,175.385468 298.469177,177.022552 
	C298.111603,175.159271 299.095306,173.613388 300.565674,172.023621 
z"/>
<path fill="#A49696" opacity="1.000000" stroke="none" 
	d="
M384.011536,62.437500 
	C385.881714,62.020840 387.425232,63.065605 389.070038,64.437370 
	C387.221222,64.772278 385.646210,63.840630 384.011536,62.437500 
z"/>
<path fill="#A49696" opacity="1.000000" stroke="none" 
	d="
M377.955719,59.504509 
	C379.817017,59.127712 381.394714,60.078747 383.021057,61.505539 
	C381.155273,61.888050 379.610443,60.861267 377.955719,59.504509 
z"/>
<path fill="#9A8A8A" opacity="1.000000" stroke="none" 
	d="
M324.739563,366.502960 
	C324.118103,367.800842 322.870728,367.961395 321.217224,367.903168 
	C321.607208,366.161469 323.066864,366.287811 324.739563,366.502960 
z"/>
<path fill="#9A8A8A" opacity="1.000000" stroke="none" 
	d="
M337.564392,180.076569 
	C336.757263,178.877808 337.162811,177.685944 338.012085,176.257477 
	C339.194000,177.439499 338.696930,178.723358 337.564392,180.076569 
z"/>
<path fill="#9A8A8A" opacity="1.000000" stroke="none" 
	d="
M334.616699,194.102982 
	C333.747650,192.900330 334.131683,191.696777 335.021667,190.259155 
	C336.173004,191.432785 335.679535,192.728210 334.616699,194.102982 
z"/>
<path fill="#9A8A8A" opacity="1.000000" stroke="none" 
	d="
M303.475891,166.934128 
	C303.721832,168.505142 302.751953,169.732086 301.517639,171.079117 
	C301.089569,169.431580 301.978455,168.156937 303.475891,166.934128 
z"/>
<path fill="#9A8A8A" opacity="1.000000" stroke="none" 
	d="
M335.841064,188.060089 
	C334.961212,186.807632 335.325165,185.441818 336.400513,183.949295 
	C337.372284,185.255478 336.708099,186.536987 335.841064,188.060089 
z"/>
<path fill="#9A8A8A" opacity="1.000000" stroke="none" 
	d="
M333.042725,204.732361 
	C331.877869,203.585968 332.371185,202.262360 333.318665,200.829620 
	C334.223328,202.013809 333.894501,203.247482 333.042725,204.732361 
z"/>
<path fill="#9A8A8A" opacity="1.000000" stroke="none" 
	d="
M366.921570,350.280640 
	C366.595978,352.078674 364.850739,352.156342 363.145996,352.768951 
	C363.407318,350.896790 365.234833,350.916504 366.921570,350.280640 
z"/>
<path fill="#9A8A8A" opacity="1.000000" stroke="none" 
	d="
M279.531311,225.971283 
	C280.238708,227.178116 279.851471,228.359177 278.954712,229.751419 
	C277.839355,228.540985 278.295441,227.271606 279.531311,225.971283 
z"/>
<path fill="#9A8A8A" opacity="1.000000" stroke="none" 
	d="
M273.431824,251.002289 
	C274.306946,252.300781 273.695709,253.598618 272.902008,255.143799 
	C271.932007,253.882431 272.204132,252.492661 273.431824,251.002289 
z"/>
<path fill="#9A8A8A" opacity="1.000000" stroke="none" 
	d="
M272.013428,258.263794 
	C273.130737,259.433960 272.623962,260.739502 271.621033,262.140594 
	C270.745667,260.937317 271.142975,259.722931 272.013428,258.263794 
z"/>
<path fill="#9A8A8A" opacity="1.000000" stroke="none" 
	d="
M270.474030,266.950836 
	C271.283081,268.125153 270.951477,269.325775 270.085968,270.750000 
	C268.826294,269.579163 269.373108,268.309753 270.474030,266.950836 
z"/>
<path fill="#9A8A8A" opacity="1.000000" stroke="none" 
	d="
M267.369965,284.894165 
	C268.240356,286.071838 267.889648,287.283630 267.076477,288.740173 
	C265.809448,287.591095 266.313751,286.288483 267.369965,284.894165 
z"/>
<path fill="#9A8A8A" opacity="1.000000" stroke="none" 
	d="
M360.922363,353.282104 
	C360.593964,355.077423 358.850769,355.157257 357.145874,355.768982 
	C357.407837,353.896851 359.234680,353.915771 360.922363,353.282104 
z"/>
<path fill="#A49696" opacity="1.000000" stroke="none" 
	d="
M212.826630,11.121841 
	C212.337509,12.877628 210.803040,12.699789 209.001816,12.581848 
	C209.684265,11.293908 211.058426,11.074025 212.826630,11.121841 
z"/>
<path fill="#9A8A8A" opacity="1.000000" stroke="none" 
	d="
M262.999023,312.266541 
	C264.135864,313.427460 263.629181,314.739685 262.648193,316.154053 
	C261.755981,314.957367 262.147736,313.737427 262.999023,312.266541 
z"/>
<path fill="#A49696" opacity="1.000000" stroke="none" 
	d="
M354.130707,25.389820 
	C352.507538,25.837389 351.268646,24.860117 349.928925,23.561264 
	C351.592072,23.013767 352.759155,24.164249 354.130707,25.389820 
z"/>
<path fill="#A49696" opacity="1.000000" stroke="none" 
	d="
M317.898529,41.571159 
	C319.079803,40.721230 320.299713,41.031990 321.750366,41.921738 
	C320.587952,43.110256 319.296082,42.565922 317.898529,41.571159 
z"/>
<path fill="#A49696" opacity="1.000000" stroke="none" 
	d="
M326.270630,43.017647 
	C327.429962,41.812359 328.731354,42.298836 330.115662,43.368633 
	C328.925476,44.226883 327.720886,43.844406 326.270630,43.017647 
z"/>
<path fill="#A49696" opacity="1.000000" stroke="none" 
	d="
M371.843323,56.681019 
	C373.474701,56.053440 374.771271,56.988354 376.170258,58.246269 
	C374.593353,58.704903 373.297150,57.789318 371.843323,56.681019 
z"/>
<path fill="#A49696" opacity="1.000000" stroke="none" 
	d="
M395.950684,68.487228 
	C397.572968,68.051964 398.821838,69.000381 400.131622,70.344139 
	C398.530121,70.726189 397.291718,69.761307 395.950684,68.487228 
z"/>
<path fill="#A49696" opacity="1.000000" stroke="none" 
	d="
M158.815277,32.161415 
	C158.561859,33.979492 156.863785,34.204250 155.130676,34.798378 
	C155.428253,33.037083 157.131668,32.824459 158.815277,32.161415 
z"/>
<path fill="#A49696" opacity="1.000000" stroke="none" 
	d="
M163.862579,29.257244 
	C163.652222,31.079208 161.884613,31.206198 160.239685,31.926491 
	C160.427902,30.078825 162.176285,29.920349 163.862579,29.257244 
z"/>
<path fill="#9A8A8A" opacity="1.000000" stroke="none" 
	d="
M347.792908,119.095123 
	C347.520599,120.791954 345.869720,121.126785 344.276611,121.942474 
	C344.400879,120.102936 346.011688,119.673645 347.792908,119.095123 
z"/>
<path fill="#9A8A8A" opacity="1.000000" stroke="none" 
	d="
M355.587646,132.108795 
	C355.273193,130.493744 356.092163,129.203110 357.610992,128.017395 
	C357.840607,129.588623 356.933411,130.839035 355.587646,132.108795 
z"/>
<path fill="#9A8A8A" opacity="1.000000" stroke="none" 
	d="
M306.488434,161.947021 
	C306.891693,163.597305 305.776398,164.735916 304.456726,166.028488 
	C304.026520,164.371445 305.127655,163.218170 306.488434,161.947021 
z"/>
<path fill="#A49696" opacity="1.000000" stroke="none" 
	d="
M144.891495,40.297096 
	C144.792374,41.693695 143.713974,42.357552 142.130493,42.799072 
	C142.163879,41.320274 143.367554,40.803993 144.891495,40.297096 
z"/>
<path fill="#A49696" opacity="1.000000" stroke="none" 
	d="
M385.031433,46.585186 
	C383.593719,46.901039 382.770874,45.870605 381.897644,44.518753 
	C383.326355,44.226398 384.159973,45.229904 385.031433,46.585186 
z"/>
<path fill="#A49696" opacity="1.000000" stroke="none" 
	d="
M132.829407,49.189262 
	C132.761185,50.615238 131.635574,51.243992 130.089355,51.742027 
	C130.124649,50.269325 131.313339,49.720032 132.829407,49.189262 
z"/>
<path fill="#A49696" opacity="1.000000" stroke="none" 
	d="
M392.875732,53.755089 
	C391.459076,53.913235 390.732605,52.811615 389.905457,51.476719 
	C391.394867,51.218971 392.080475,52.377125 392.875732,53.755089 
z"/>
<path fill="#9A8A8A" opacity="1.000000" stroke="none" 
	d="
M384.763336,338.104248 
	C384.870453,339.589050 383.703461,340.229675 382.231934,340.885559 
	C382.157501,339.416351 383.286499,338.756226 384.763336,338.104248 
z"/>
<path fill="#A49696" opacity="1.000000" stroke="none" 
	d="
M120.766472,59.131676 
	C120.923981,60.646759 119.734634,61.265965 118.243423,61.910007 
	C118.163872,60.446781 119.347145,59.840855 120.766472,59.131676 
z"/>
<path fill="#A49696" opacity="1.000000" stroke="none" 
	d="
M376.106384,39.483749 
	C374.632874,39.941822 373.844238,38.822308 372.886322,37.556816 
	C374.301727,37.198811 375.165741,38.189732 376.106384,39.483749 
z"/>
<path fill="#A49696" opacity="1.000000" stroke="none" 
	d="
M219.023773,9.602970 
	C218.659195,10.833551 217.584610,11.004332 216.135101,10.906240 
	C216.407349,9.514439 217.539169,9.435865 219.023773,9.602970 
z"/>
<path fill="#9A8A8A" opacity="1.000000" stroke="none" 
	d="
M338.869446,174.100525 
	C338.027039,173.116959 338.362427,172.056976 339.369873,170.899902 
	C340.241364,171.931229 339.644897,172.907074 338.869446,174.100525 
z"/>
<path fill="#A49696" opacity="1.000000" stroke="none" 
	d="
M224.847641,8.169109 
	C224.738907,9.694650 223.598923,9.670987 222.228363,9.428299 
	C222.594238,8.325135 223.508560,8.102757 224.847641,8.169109 
z"/>
<path fill="#9A8A8A" opacity="1.000000" stroke="none" 
	d="
M329.990662,365.289520 
	C329.689056,366.762024 328.477142,366.640839 327.006714,366.518158 
	C327.446869,365.378967 328.522064,365.159790 329.990662,365.289520 
z"/>
<path fill="#A49696" opacity="1.000000" stroke="none" 
	d="
M334.928345,44.468563 
	C335.831573,43.765369 336.727844,44.038815 337.794617,44.900539 
	C336.858093,46.036255 335.939972,45.393402 334.928345,44.468563 
z"/>
<path fill="#A49696" opacity="1.000000" stroke="none" 
	d="
M339.885559,45.798065 
	C340.866241,44.956074 341.940948,45.255981 343.097290,46.312084 
	C342.054840,47.180912 341.096375,46.515121 339.885559,45.798065 
z"/>
<path fill="#9A8A8A" opacity="1.000000" stroke="none" 
	d="
M269.019470,274.892578 
	C269.952271,275.827545 269.646393,276.915222 268.756836,278.151489 
	C267.787689,277.174438 268.254242,276.139832 269.019470,274.892578 
z"/>
<path fill="#A49696" opacity="1.000000" stroke="none" 
	d="
M206.787079,12.644552 
	C206.433411,13.774652 205.507965,13.961318 204.161514,13.880569 
	C204.282303,12.381371 205.425095,12.417955 206.787079,12.644552 
z"/>
<path fill="#9A8A8A" opacity="1.000000" stroke="none" 
	d="
M331.075226,224.798645 
	C330.256805,224.190323 330.578094,223.305496 330.863403,222.217346 
	C331.099792,222.864410 331.176453,223.729538 331.075226,224.798645 
z"/>
<path fill="#A49696" opacity="1.000000" stroke="none" 
	d="
M328.083252,13.518499 
	C327.167236,14.203156 326.277222,13.897141 325.209503,13.046806 
	C326.154144,11.934061 327.079681,12.551278 328.083252,13.518499 
z"/>
<path fill="#9A8A8A" opacity="1.000000" stroke="none" 
	d="
M278.055786,231.882782 
	C278.926147,232.851715 278.610931,233.920105 277.650269,235.105255 
	C276.743347,234.096008 277.231140,233.085342 278.055786,231.882782 
z"/>
<path fill="#9A8A8A" opacity="1.000000" stroke="none" 
	d="
M276.401886,238.869324 
	C277.141144,239.789307 276.818909,240.681213 276.023865,241.773834 
	C274.862885,240.854126 275.421631,239.890915 276.401886,238.869324 
z"/>
<path fill="#9A8A8A" opacity="1.000000" stroke="none" 
	d="
M275.139282,243.910385 
	C275.991638,244.878967 275.666229,245.950836 274.701477,247.136475 
	C273.784058,246.113739 274.397705,245.127686 275.139282,243.910385 
z"/>
<path fill="#9A8A8A" opacity="1.000000" stroke="none" 
	d="
M324.808105,138.170959 
	C325.163330,139.099670 324.477478,139.593475 323.515137,140.147736 
	C323.126953,139.196945 323.699585,138.632385 324.808105,138.170959 
z"/>
<path fill="#9A8A8A" opacity="1.000000" stroke="none" 
	d="
M335.709137,128.025452 
	C335.904633,128.942932 335.311035,129.474670 334.217285,129.869705 
	C333.959961,128.913498 334.683990,128.475937 335.709137,128.025452 
z"/>
<path fill="#9A8A8A" opacity="1.000000" stroke="none" 
	d="
M341.826660,123.131004 
	C342.000244,124.101082 341.293427,124.526390 340.235626,124.911903 
	C340.005951,123.914612 340.675537,123.435432 341.826660,123.131004 
z"/>
<path fill="#9A8A8A" opacity="1.000000" stroke="none" 
	d="
M320.548096,142.947601 
	C320.982239,143.846191 320.500763,144.496613 319.458435,145.077362 
	C318.970093,144.148438 319.612732,143.582764 320.548096,142.947601 
z"/>
<path fill="#A49696" opacity="1.000000" stroke="none" 
	d="
M139.778839,44.088585 
	C139.970749,45.110107 139.270508,45.539410 138.101807,45.780907 
	C137.956421,44.791645 138.703384,44.419510 139.778839,44.088585 
z"/>
<path fill="#9A8A8A" opacity="1.000000" stroke="none" 
	d="
M351.027557,117.416733 
	C350.723419,118.001251 350.110443,118.485146 349.195068,118.914734 
	C349.085327,117.853729 349.800476,117.464828 351.027557,117.416733 
z"/>
<path fill="#A49696" opacity="1.000000" stroke="none" 
	d="
M135.724716,47.032761 
	C135.938141,48.025154 135.287903,48.522152 134.125732,48.810638 
	C133.971054,47.848206 134.658386,47.404900 135.724716,47.032761 
z"/>
<path fill="#A49696" opacity="1.000000" stroke="none" 
	d="
M372.112305,36.478958 
	C371.173859,36.998844 370.613129,36.378002 370.033661,35.352539 
	C370.951233,34.878838 371.487946,35.540787 372.112305,36.478958 
z"/>
<path fill="#9A8A8A" opacity="1.000000" stroke="none" 
	d="
M318.183167,358.880554 
	C317.982605,357.874298 318.698181,357.466614 319.807739,357.143799 
	C320.040375,358.161835 319.296539,358.560242 318.183167,358.880554 
z"/>
<path fill="#A49696" opacity="1.000000" stroke="none" 
	d="
M153.754837,35.029541 
	C153.883301,36.066666 153.204697,36.505077 151.972504,36.585129 
	C152.257660,35.992424 152.854172,35.489952 153.754837,35.029541 
z"/>
<path fill="#9A8A8A" opacity="1.000000" stroke="none" 
	d="
M322.581757,354.081970 
	C321.942047,353.324310 322.290253,352.607239 323.003174,351.751617 
	C323.804352,352.488495 323.558136,353.266205 322.581757,354.081970 
z"/>
<path fill="#9A8A8A" opacity="1.000000" stroke="none" 
	d="
M371.888184,347.196503 
	C372.052734,348.247101 371.282684,348.566254 370.144348,348.797119 
	C370.006500,347.791443 370.773651,347.451782 371.888184,347.196503 
z"/>
<path fill="#9A8A8A" opacity="1.000000" stroke="none" 
	d="
M374.864075,345.167999 
	C374.629578,345.780884 374.076385,346.345551 373.212799,346.893982 
	C373.016907,345.886902 373.685730,345.414185 374.864075,345.167999 
z"/>
<path fill="#A49696" opacity="1.000000" stroke="none" 
	d="
M127.765518,53.094650 
	C128.019363,54.077141 127.369179,54.574406 126.247192,54.936726 
	C126.007187,53.959915 126.729889,53.526772 127.765518,53.094650 
z"/>
<path fill="#9A8A8A" opacity="1.000000" stroke="none" 
	d="
M380.888214,341.196533 
	C381.052704,342.247040 380.282623,342.566559 379.144470,342.797607 
	C379.006287,341.791290 379.773682,341.451874 380.888214,341.196533 
z"/>
<path fill="#A49696" opacity="1.000000" stroke="none" 
	d="
M357.222198,27.215158 
	C356.355865,27.873568 355.690155,27.410109 355.037354,26.369572 
	C355.876343,25.840441 356.496185,26.379978 357.222198,27.215158 
z"/>
<path fill="#9A8A8A" opacity="1.000000" stroke="none" 
	d="
M390.798157,333.127655 
	C390.618103,333.742188 390.121918,334.361786 389.313416,334.991333 
	C389.088989,334.056824 389.660675,333.495850 390.798157,333.127655 
z"/>
<path fill="#9A8A8A" opacity="1.000000" stroke="none" 
	d="
M327.724670,135.081558 
	C328.079773,136.015701 327.363037,136.491196 326.413025,137.058746 
	C326.049652,136.117691 326.625366,135.552460 327.724670,135.081558 
z"/>
<path fill="#9A8A8A" opacity="1.000000" stroke="none" 
	d="
M308.457184,158.910980 
	C308.999695,159.811142 308.427856,160.417435 307.454346,161.056519 
	C306.914642,160.152313 307.545166,159.577942 308.457184,158.910980 
z"/>
<path fill="#9A8A8A" opacity="1.000000" stroke="none" 
	d="
M363.817841,111.611137 
	C363.465118,112.136093 362.936615,112.477737 362.089294,112.730560 
	C361.918488,111.503441 362.728394,111.385658 363.817841,111.611137 
z"/>
<path fill="#A49696" opacity="1.000000" stroke="none" 
	d="
M392.790222,66.770798 
	C393.619324,66.140350 394.325500,66.550339 395.040955,67.519928 
	C394.208649,68.092369 393.558807,67.573090 392.790222,66.770798 
z"/>
<path fill="#9A8A8A" opacity="1.000000" stroke="none" 
	d="
M343.598938,158.181656 
	C343.424622,157.595215 343.506287,156.973099 343.871521,156.175705 
	C344.989044,156.846283 344.418182,157.495605 343.598938,158.181656 
z"/>
<path fill="#9A8A8A" opacity="1.000000" stroke="none" 
	d="
M344.974335,154.185745 
	C344.233948,153.427673 344.604614,152.715179 345.511139,151.946426 
	C346.179749,152.716217 345.742889,153.387909 344.974335,154.185745 
z"/>
<path fill="#A49696" opacity="1.000000" stroke="none" 
	d="
M403.837921,72.703911 
	C404.669586,72.073105 405.335693,72.545547 406.023468,73.534508 
	C405.183258,74.106918 404.603485,73.477585 403.837921,72.703911 
z"/>
<path fill="#9A8A8A" opacity="1.000000" stroke="none" 
	d="
M267.981262,280.134033 
	C268.210785,280.556641 268.255585,281.117371 268.136841,281.839447 
	C267.914337,281.424561 267.855438,280.848389 267.981262,280.134033 
z"/>
</svg>